<?xml version="1.0" encoding="UTF-8"?>
<!DOCTYPE svg PUBLIC "-//W3C//DTD SVG 1.1//EN" "http://www.w3.org/Graphics/SVG/1.1/DTD/svg11.dtd">
<!-- Creator: CorelDRAW 2021 (64-Bit) -->
<svg xmlns="http://www.w3.org/2000/svg" xml:space="preserve" width="143.867mm" height="35.8659mm" version="1.1" style="shape-rendering:geometricPrecision; text-rendering:geometricPrecision; image-rendering:optimizeQuality; fill-rule:evenodd; clip-rule:evenodd"
viewBox="0 0 14384.52 3586.06"
 xmlns:xlink="http://www.w3.org/1999/xlink"
 xmlns:xodm="http://www.corel.com/coreldraw/odm/2003">
 <defs>
  <style type="text/css">
   <![CDATA[
    .fil2 {fill:#FEFEFE}
    .fil1 {fill:#ECAA15}
    .fil0 {fill:#FEFEFE;fill-rule:nonzero}
   ]]>
  </style>
 </defs>
 <g id="Слой_x0020_1">
  <metadata id="CorelCorpID_0Corel-Layer"/>
  <path class="fil0" d="M4312.37 2475.5c-123.84,0 -244.05,-15.3 -360.62,-45.89 -116.55,-30.6 -211.26,-71.4 -284.12,-122.39l142.06 -319.08c68.48,45.16 147.89,81.59 238.22,109.27 90.34,27.69 179.21,41.52 266.64,41.52 166.1,0 249.15,-41.52 249.15,-124.57 0,-43.71 -23.68,-76.14 -71.03,-97.27 -47.36,-21.13 -123.49,-43.34 -228.4,-66.65 -115.1,-24.78 -211.27,-51.36 -288.49,-79.78 -77.22,-28.41 -143.52,-73.94 -198.88,-136.59 -55.37,-62.66 -83.06,-147.17 -83.06,-253.52 0,-93.26 25.51,-177.39 76.5,-252.43 50.99,-75.04 127.12,-134.41 228.39,-178.12 101.26,-43.71 225.48,-65.56 372.63,-65.56 100.54,0 199.61,11.29 297.24,33.87 97.62,22.58 183.58,55.73 257.89,99.44l-133.32 321.27c-145.7,-78.68 -287.04,-118.01 -424,-118.01 -85.96,0 -148.61,12.75 -187.95,38.24 -39.34,25.5 -59.01,58.64 -59.01,99.45 0,40.79 23.32,71.39 69.94,91.79 46.62,20.41 121.66,41.53 225.11,63.38 116.56,24.78 213.09,51.36 289.59,79.78 76.49,28.41 142.79,73.58 198.88,135.5 56.1,61.92 84.15,146.07 84.15,252.43 0,91.79 -25.5,174.84 -76.5,249.15 -50.99,74.3 -127.49,133.68 -229.48,178.11 -101.99,44.44 -225.84,66.66 -371.54,66.66zm1193.86 -1217.34l-469.89 0 0 -343.13 1370.34 0 0 343.13 -467.71 0 0 1186.74 -432.74 0 0 -1186.74zm1744.62 780.23l-236.03 0 0 406.51 -432.74 0 0 -1529.87 699.38 0c138.41,0 258.62,22.95 360.61,68.84 101.99,45.9 180.67,111.46 236.04,196.7 55.36,85.24 83.05,185.4 83.05,300.52 0,110.73 -25.87,207.26 -77.59,289.58 -51.72,82.33 -125.67,146.8 -221.83,193.42l330.01 480.82 -463.33 0 -277.57 -406.51zm273.2 -557.31c0,-71.4 -22.59,-126.76 -67.76,-166.11 -45.16,-39.34 -112.18,-59.01 -201.06,-59.01l-240.41 0 0 448.03 240.41 0c88.88,0 155.9,-19.3 201.06,-57.91 45.17,-38.61 67.76,-93.62 67.76,-165.01zm1460.5 994.41c-161.73,0 -307.06,-34.23 -436.02,-102.71 -128.95,-68.48 -230.21,-163.19 -303.78,-284.13 -73.59,-120.93 -110.37,-257.16 -110.37,-408.69 0,-151.53 36.78,-287.77 110.37,-408.7 73.58,-120.93 174.83,-215.64 303.78,-284.12 128.95,-68.48 274.29,-102.71 436.02,-102.71 161.73,0 307.06,34.23 436.02,102.71 128.94,68.48 230.21,163.19 303.78,284.12 73.58,120.93 110.37,257.17 110.37,408.7 0,151.53 -36.79,287.76 -110.37,408.69 -73.58,120.94 -174.84,215.65 -303.78,284.13 -128.95,68.48 -274.29,102.71 -436.02,102.71zm0 -358.43c77.22,0 147.16,-18.21 209.81,-54.64 62.65,-36.42 112.19,-87.78 148.62,-154.08 36.42,-66.29 54.64,-142.42 54.64,-228.39 0,-85.97 -18.22,-162.1 -54.64,-228.39 -36.42,-66.3 -85.97,-117.66 -148.62,-154.09 -62.65,-36.42 -132.59,-54.63 -209.81,-54.63 -77.22,0 -147.16,18.21 -209.81,54.63 -62.66,36.42 -112.19,87.79 -148.62,154.09 -36.42,66.29 -54.64,142.42 -54.64,228.39 0,85.97 18.22,162.1 54.64,228.39 36.42,66.3 85.96,117.65 148.62,154.08 62.65,36.43 132.59,54.64 209.81,54.64zm1523.88 -867.66l0 336.58 675.33 0 0 334.38 -675.33 0 0 524.53 -432.74 0 0 -1529.87 1199.86 0 0 334.38 -767.13 0zm2212.32 861.1l0 334.39 -1228.27 0 0 -1529.87 1199.86 0 0 334.38 -771.5 0 0 257.9 679.7 0 0 323.45 -679.7 0 0 279.75 799.9 0zm922.86 -72.12l-236.03 0 0 406.51 -432.74 0 0 -1529.87 699.38 0c138.41,0 258.62,22.95 360.61,68.84 101.99,45.9 180.67,111.46 236.04,196.7 55.36,85.24 83.05,185.4 83.05,300.52 0,110.73 -25.87,207.26 -77.59,289.58 -51.72,82.33 -125.67,146.8 -221.83,193.42l330.01 480.82 -463.33 0 -277.57 -406.51zm273.2 -557.31c0,-71.4 -22.59,-126.76 -67.76,-166.11 -45.16,-39.34 -112.18,-59.01 -201.06,-59.01l-240.41 0 0 448.03 240.41 0c88.88,0 155.9,-19.3 201.06,-57.91 45.17,-38.61 67.76,-93.62 67.76,-165.01z"/>
  <path class="fil1" d="M1908.95 426.59l1363.22 551.57c0,807.73 0,1800.17 0,2607.9 -908.81,0 -1817.62,0 -2726.43,0l0 -2607.9 1363.22 -551.57z"/>
  <polygon class="fil2" points="411.43,213.69 1011.58,213.69 1063.88,192.52 1539.73,0 2015.57,192.52 2722.51,478.56 3079.45,622.99 3079.45,1008.04 3079.45,1167.86 2722.51,1167.86 2722.51,863.61 1539.73,385.05 356.95,863.61 356.95,1244.04 713.89,1244.04 1070.84,1244.04 1070.84,1600.99 713.89,1600.99 356.95,1600.99 356.95,3003.27 2722.51,3003.27 2722.51,2658.93 1679.79,2658.93 1322.84,2658.93 1322.84,2301.99 1322.84,1957.94 1322.84,1600.99 1679.79,1600.99 3079.45,1600.99 3079.45,1957.94 1679.79,1957.94 1679.79,2301.99 2722.51,2301.99 3079.45,2301.99 3079.45,2318.5 2917.49,2480.46 3079.45,2642.43 3079.45,2658.93 3079.45,3003.27 3079.45,3359.93 2722.51,3359.93 356.95,3359.93 -0,3359.93 -0,3003.27 -0,1600.99 -0,1244.04 -0,1008.04 -0,622.99 356.95,478.56 411.43,456.51 "/>
  <path class="fil0" d="M4164.05 3175.88c-13.15,16.02 -28.65,28.24 -46.51,36.65 -17.87,8.42 -37.27,12.63 -58.22,12.63 -25.46,0 -49.58,-6.26 -72.38,-18.79 -22.8,-12.53 -48.36,-33.58 -76.7,-63.14 -41.48,-1.24 -78.86,-11.5 -112.12,-30.81 -33.27,-19.31 -59.34,-45.38 -78.24,-78.24 -18.89,-32.86 -28.34,-69.61 -28.34,-110.27 0,-41.48 9.75,-78.85 29.27,-112.12 19.51,-33.27 46.61,-59.44 81.32,-78.54 34.7,-19.1 73.41,-28.65 116.12,-28.65 42.71,0 81.22,9.44 115.51,28.34 34.28,18.89 61.29,45.07 81.01,78.55 19.71,33.47 29.57,70.94 29.57,112.42 0,36.14 -7.49,69.31 -22.49,99.5 -14.99,30.19 -35.93,55.34 -62.83,75.46 -26.91,20.13 -57.81,33.48 -92.72,40.04 31.63,33.28 62.83,49.9 93.64,49.9 32.04,0 59.35,-13.14 81.94,-39.42l22.18 26.49zm-427.54 -251.96c0,33.67 7.9,64.07 23.72,91.18 15.81,27.11 37.57,48.46 65.3,64.07 27.73,15.61 58.63,23.41 92.72,23.41 34.08,0 64.89,-7.8 92.41,-23.41 27.52,-15.61 49.08,-36.96 64.68,-64.07 15.61,-27.11 23.42,-57.5 23.42,-91.18 0,-33.67 -7.81,-64.07 -23.42,-91.18 -15.6,-27.11 -37.16,-48.46 -64.68,-64.07 -27.52,-15.61 -58.32,-23.41 -92.41,-23.41 -34.08,0 -64.99,7.8 -92.72,23.41 -27.73,15.61 -49.49,36.96 -65.3,64.07 -15.82,27.11 -23.72,57.5 -23.72,91.18zm687.28 219.32c-55.85,0 -99.39,-16.02 -130.6,-48.05 -31.22,-32.04 -46.82,-78.65 -46.82,-139.85l0 -247.03 45.59 0 0 245.19c0,50.1 11.29,87.48 33.88,112.11 22.59,24.65 55.23,36.96 97.95,36.96 43.12,0 75.98,-12.32 98.57,-36.96 22.6,-24.64 33.88,-62.01 33.88,-112.11l0 -245.19 44.35 0 0 247.03c0,61.2 -15.5,107.81 -46.5,139.85 -31.02,32.04 -74.45,48.05 -130.3,48.05zm612.12 -3.7l-98.57 -138.61c-11.09,1.23 -22.59,1.85 -34.49,1.85l-115.82 0 0 136.76 -45.58 0 0 -431.24 161.41 0c55.03,0 98.16,13.15 129.37,39.42 31.22,26.29 46.81,62.43 46.81,108.43 0,33.67 -8.52,62.11 -25.57,85.32 -17.04,23.21 -41.37,39.94 -73,50.21l105.34 147.85 -49.9 0zm-134.29 -175.57c42.71,0 75.36,-9.45 97.95,-28.34 22.59,-18.9 33.88,-45.38 33.88,-79.47 0,-34.91 -11.3,-61.71 -33.88,-80.4 -22.59,-18.69 -55.23,-28.04 -97.95,-28.04l-114.59 0 0 216.24 114.59 0zm288.7 -255.66l45.58 0 0 431.24 -45.58 0 0 -431.24zm189.51 0l45.58 0 0 391.81 241.49 0 0 39.42 -287.08 0 0 -431.24zm366.33 0l45.58 0 0 431.24 -45.58 0 0 -431.24zm308.4 434.94c-32.03,0 -62.73,-5.14 -92.1,-15.41 -29.37,-10.27 -52.05,-23.82 -68.07,-40.65l17.87 -35.11c15.61,15.61 36.34,28.24 62.22,37.88 25.87,9.65 52.56,14.48 80.08,14.48 38.61,0 67.56,-7.09 86.87,-21.26 19.31,-14.17 28.96,-32.55 28.96,-55.13 0,-17.25 -5.24,-31.01 -15.71,-41.27 -10.48,-10.27 -23.31,-18.18 -38.5,-23.72 -15.2,-5.55 -36.34,-11.61 -63.45,-18.18 -32.45,-8.22 -58.32,-16.12 -77.63,-23.72 -19.3,-7.6 -35.83,-19.2 -49.59,-34.8 -13.76,-15.61 -20.64,-36.76 -20.64,-63.46 0,-21.77 5.75,-41.58 17.25,-59.44 11.51,-17.87 29.17,-32.15 52.98,-42.82 23.83,-10.67 53.39,-16.01 88.72,-16.01 24.64,0 48.76,3.38 72.38,10.16 23.62,6.78 44.05,16.12 61.3,28.04l-15.4 36.34c-18.08,-11.91 -37.37,-20.85 -57.91,-26.8 -20.54,-5.96 -40.66,-8.94 -60.37,-8.94 -37.78,0 -66.23,7.29 -85.33,21.87 -19.1,14.59 -28.65,33.38 -28.65,56.37 0,17.25 5.24,31.12 15.71,41.58 10.48,10.48 23.62,18.49 39.43,24.03 15.81,5.55 37.06,11.6 63.76,18.18 31.62,7.8 57.18,15.5 76.7,23.1 19.51,7.6 36.03,19.1 49.58,34.5 13.56,15.4 20.34,36.24 20.34,62.52 0,21.77 -5.86,41.58 -17.56,59.45 -11.71,17.87 -29.68,32.04 -53.9,42.51 -24.24,10.47 -54.01,15.71 -89.34,15.71zm623.84 -434.94l0 431.24 -44.97 0 0 -198.98 -269.83 0 0 198.98 -45.58 0 0 -431.24 45.58 0 0 192.21 269.83 0 0 -192.21 44.97 0zm753.2 0l0 431.24 -43.73 0 0 -344.99 -169.41 290.16 -21.57 0 -169.4 -288.31 0 343.14 -43.74 0 0 -431.24 37.57 0 187.28 319.73 185.43 -319.73 37.57 0zm332.44 434.94c-42.71,0 -81.42,-9.55 -116.12,-28.65 -34.7,-19.1 -61.81,-45.28 -81.32,-78.55 -19.52,-33.27 -29.27,-70.64 -29.27,-112.12 0,-41.48 9.75,-78.85 29.27,-112.12 19.51,-33.27 46.61,-59.44 81.32,-78.54 34.7,-19.1 73.41,-28.65 116.12,-28.65 42.71,0 81.22,9.44 115.51,28.34 34.28,18.89 61.29,45.07 81.01,78.55 19.71,33.47 29.57,70.94 29.57,112.42 0,41.48 -9.86,78.96 -29.57,112.43 -19.72,33.47 -46.72,59.65 -81.01,78.54 -34.29,18.9 -72.8,28.35 -115.51,28.35zm0 -40.66c34.08,0 64.89,-7.7 92.41,-23.1 27.52,-15.41 49.08,-36.76 64.68,-64.07 15.61,-27.32 23.42,-57.81 23.42,-91.49 0,-33.67 -7.81,-64.17 -23.42,-91.49 -15.6,-27.31 -37.16,-48.66 -64.68,-64.06 -27.52,-15.41 -58.32,-23.11 -92.41,-23.11 -34.08,0 -64.99,7.7 -92.72,23.11 -27.73,15.4 -49.49,36.75 -65.3,64.06 -15.82,27.32 -23.72,57.81 -23.72,91.49 0,33.67 7.9,64.17 23.72,91.49 15.81,27.31 37.57,48.66 65.3,64.07 27.73,15.4 58.63,23.1 92.72,23.1zm331.82 -394.27l45.58 0 0 391.81 241.49 0 0 39.42 -287.08 0 0 -431.24zm638.01 316.03l-240.26 0 -51.74 115.2 -47.44 0 197.14 -431.24 44.97 0 197.13 431.24 -48.05 0 -51.74 -115.2zm-16.64 -36.96l-103.49 -231.64 -103.49 231.64 206.99 0zm485.83 152.17l-98.57 -138.61c-11.09,1.23 -22.59,1.85 -34.49,1.85l-115.82 0 0 136.76 -45.58 0 0 -431.24 161.41 0c55.03,0 98.16,13.15 129.37,39.42 31.22,26.29 46.81,62.43 46.81,108.43 0,33.67 -8.52,62.11 -25.57,85.32 -17.04,23.21 -41.37,39.94 -73,50.21l105.34 147.85 -49.9 0zm-134.29 -175.57c42.71,0 75.36,-9.45 97.95,-28.34 22.59,-18.9 33.88,-45.38 33.88,-79.47 0,-34.91 -11.3,-61.71 -33.88,-80.4 -22.59,-18.69 -55.23,-28.04 -97.95,-28.04l-114.59 0 0 216.24 114.59 0zm288.7 -255.66l45.58 0 0 431.24 -45.58 0 0 -431.24z"/>
 </g>
</svg>
